<svg xmlns="http://www.w3.org/2000/svg" xmlns:xlink="http://www.w3.org/1999/xlink" width="1024" zoomAndPan="magnify" viewBox="0 0 768 767.999994" height="1024" preserveAspectRatio="xMidYMid meet" version="1.2"><defs><clipPath id="925d6e5fc0"><path d="M 103.144531 128.550781 L 681.394531 128.550781 L 681.394531 626 L 103.144531 626 Z M 103.144531 128.550781 "/></clipPath></defs><g id="86f0ce3ed8"><rect x="0" width="768" y="0" height="767.999994" style="fill:#ffffff;fill-opacity:1;stroke:none;"/><rect x="0" width="768" y="0" height="767.999994" style="fill:#1a2533;fill-opacity:1;stroke:none;"/><path style=" stroke:none;fill-rule:evenodd;fill:#f5f5e9;fill-opacity:1;" d="M 159.5 366.582031 C 159.503906 370.171875 159.613281 373.757812 159.828125 377.339844 C 160.042969 380.921875 160.363281 384.496094 160.789062 388.058594 C 161.210938 391.621094 161.742188 395.171875 162.378906 398.703125 C 163.011719 402.234375 163.75 405.746094 164.59375 409.234375 C 165.433594 412.722656 166.378906 416.183594 167.425781 419.617188 C 168.46875 423.050781 169.617188 426.449219 170.863281 429.816406 C 172.109375 433.179688 173.453125 436.503906 174.898438 439.792969 C 176.339844 443.078125 177.878906 446.320312 179.511719 449.515625 C 181.148438 452.710938 182.875 455.851562 184.695312 458.945312 C 186.511719 462.039062 188.421875 465.078125 190.421875 468.058594 C 192.421875 471.039062 194.503906 473.957031 196.675781 476.816406 C 198.847656 479.671875 201.101562 482.464844 203.4375 485.1875 C 205.773438 487.914062 208.1875 490.566406 210.679688 493.148438 C 213.171875 495.730469 215.738281 498.238281 218.378906 500.667969 C 221.019531 503.097656 223.726562 505.449219 226.507812 507.722656 C 229.285156 509.992188 232.128906 512.179688 235.039062 514.28125 C 237.945312 516.382812 240.914062 518.398438 243.941406 520.328125 C 246.96875 522.257812 250.050781 524.09375 253.183594 525.839844 C 256.320312 527.585938 259.503906 529.238281 262.738281 530.796875 C 265.96875 532.355469 269.246094 533.816406 272.566406 535.179688 C 275.886719 536.546875 279.242188 537.8125 282.636719 538.976562 C 286.03125 540.144531 289.453125 541.210938 292.910156 542.175781 C 296.367188 543.140625 299.851562 544 303.359375 544.761719 C 306.867188 545.519531 310.394531 546.175781 313.9375 546.726562 C 317.484375 547.277344 321.042969 547.722656 324.617188 548.066406 C 328.191406 548.40625 331.769531 548.640625 335.355469 548.769531 C 338.941406 548.902344 342.53125 548.925781 346.117188 548.84375 C 349.707031 548.761719 353.289062 548.574219 356.863281 548.28125 C 360.441406 547.988281 364.007812 547.589844 367.5625 547.085938 C 371.113281 546.582031 374.648438 545.972656 378.167969 545.261719 C 381.683594 544.546875 385.175781 543.734375 388.648438 542.8125 C 392.117188 541.894531 395.554688 540.875 398.964844 539.753906 L 442.210938 583.160156 C 438.65625 584.804688 435.0625 586.363281 431.429688 587.828125 C 427.796875 589.296875 424.128906 590.675781 420.429688 591.964844 C 416.726562 593.253906 412.996094 594.449219 409.238281 595.554688 C 405.476562 596.660156 401.691406 597.671875 397.882812 598.589844 C 394.074219 599.507812 390.246094 600.332031 386.394531 601.0625 C 382.542969 601.789062 378.679688 602.425781 374.796875 602.964844 C 370.917969 603.503906 367.023438 603.949219 363.121094 604.296875 C 359.21875 604.644531 355.308594 604.898438 351.394531 605.054688 C 347.476562 605.210938 343.5625 605.269531 339.640625 605.230469 C 335.722656 605.195312 331.808594 605.0625 327.898438 604.832031 C 323.984375 604.601562 320.082031 604.277344 316.183594 603.855469 C 312.289062 603.433594 308.40625 602.914062 304.535156 602.304688 C 300.664062 601.691406 296.8125 600.984375 292.976562 600.179688 C 289.140625 599.378906 285.328125 598.480469 281.535156 597.492188 C 277.746094 596.5 273.980469 595.417969 270.242188 594.242188 C 266.503906 593.070312 262.796875 591.800781 259.121094 590.445312 C 255.445312 589.085938 251.804688 587.640625 248.199219 586.101562 C 244.59375 584.566406 241.03125 582.941406 237.507812 581.230469 C 233.980469 579.515625 230.5 577.71875 227.066406 575.835938 C 223.628906 573.953125 220.242188 571.984375 216.902344 569.933594 C 213.5625 567.882812 210.273438 565.753906 207.039062 563.542969 C 203.804688 561.328125 200.628906 559.039062 197.503906 556.671875 C 194.382812 554.304688 191.320312 551.859375 188.320312 549.339844 C 185.320312 546.820312 182.378906 544.230469 179.507812 541.566406 C 176.632812 538.902344 173.824219 536.171875 171.085938 533.367188 C 168.347656 530.566406 165.675781 527.699219 163.078125 524.765625 C 160.480469 521.832031 157.953125 518.839844 155.503906 515.78125 C 153.050781 512.722656 150.679688 509.609375 148.378906 506.433594 C 146.082031 503.257812 143.863281 500.03125 141.726562 496.746094 C 139.585938 493.464844 137.527344 490.128906 135.554688 486.746094 C 133.578125 483.359375 131.6875 479.929688 129.882812 476.453125 C 128.074219 472.976562 126.355469 469.457031 124.722656 465.894531 C 123.785156 461.121094 123.003906 456.324219 122.382812 451.5 C 121.761719 446.675781 121.296875 441.835938 120.992188 436.984375 C 120.6875 432.128906 120.542969 427.269531 120.558594 422.40625 C 120.574219 417.542969 120.75 412.683594 121.085938 407.832031 C 121.421875 402.980469 121.917969 398.144531 122.570312 393.324219 C 123.226562 388.507812 124.035156 383.714844 125.003906 378.949219 C 125.976562 374.183594 127.101562 369.453125 128.378906 364.761719 C 129.660156 360.070312 131.09375 355.425781 132.679688 350.828125 C 134.265625 346.230469 136.003906 341.6875 137.886719 337.207031 C 139.773438 332.722656 141.804688 328.304688 143.980469 323.957031 C 146.15625 319.605469 148.472656 315.332031 150.929688 311.136719 C 153.386719 306.9375 155.976562 302.824219 158.703125 298.800781 C 161.433594 294.773438 164.289062 290.839844 167.277344 287 C 170.261719 283.164062 173.371094 279.425781 176.605469 275.792969 C 179.835938 272.15625 183.183594 268.632812 186.648438 265.222656 C 190.113281 261.808594 193.6875 258.511719 197.367188 255.332031 C 194.316406 259.28125 191.4375 263.347656 188.722656 267.535156 C 186.007812 271.71875 183.46875 276.011719 181.109375 280.40625 C 178.746094 284.800781 176.570312 289.285156 174.582031 293.863281 C 172.589844 298.4375 170.789062 303.085938 169.183594 307.808594 C 167.574219 312.53125 166.164062 317.3125 164.953125 322.152344 C 163.738281 326.992188 162.726562 331.871094 161.914062 336.796875 C 161.105469 341.71875 160.496094 346.667969 160.09375 351.640625 C 159.691406 356.613281 159.492188 361.59375 159.5 366.582031 Z M 159.5 366.582031 "/><g clip-rule="nonzero" clip-path="url(#925d6e5fc0)"><path style=" stroke:none;fill-rule:evenodd;fill:#8379cd;fill-opacity:1;" d="M 580.46875 366.582031 C 580.480469 374.023438 580.140625 381.445312 579.457031 388.855469 C 578.769531 396.261719 577.738281 403.621094 576.359375 410.933594 C 574.980469 418.246094 573.265625 425.476562 571.210938 432.625 C 569.152344 439.777344 566.769531 446.816406 564.050781 453.742188 C 561.335938 460.667969 558.300781 467.453125 554.949219 474.09375 C 551.59375 480.734375 547.9375 487.207031 543.980469 493.503906 C 540.019531 499.804688 535.773438 505.902344 531.242188 511.800781 C 526.707031 517.703125 521.910156 523.378906 516.84375 528.828125 C 558.359375 560.953125 605.550781 586.191406 681.441406 562.773438 C 497.511719 742.878906 442.429688 475.78125 306.542969 470.40625 C 383.675781 434.886719 429.832031 459.398438 472.949219 493.21875 C 476.035156 490.019531 479 486.714844 481.84375 483.300781 C 484.6875 479.890625 487.40625 476.375 489.992188 472.765625 C 492.578125 469.152344 495.03125 465.453125 497.347656 461.660156 C 499.664062 457.867188 501.839844 454 503.871094 450.046875 C 505.90625 446.097656 507.792969 442.078125 509.53125 437.992188 C 511.273438 433.902344 512.859375 429.757812 514.296875 425.550781 C 515.734375 421.347656 517.015625 417.097656 518.140625 412.800781 C 519.265625 408.5 520.234375 404.167969 521.042969 399.800781 C 521.851562 395.429688 522.5 391.039062 522.988281 386.625 C 523.476562 382.207031 523.804688 377.777344 523.96875 373.339844 C 524.132812 368.898438 524.132812 364.460938 523.972656 360.019531 C 523.8125 355.578125 523.492188 351.152344 523.007812 346.734375 C 522.523438 342.320312 521.878906 337.925781 521.074219 333.554688 C 520.269531 329.1875 519.304688 324.851562 518.183594 320.554688 C 517.0625 316.253906 515.785156 312.003906 514.351562 307.796875 C 512.917969 303.59375 511.335938 299.445312 509.597656 295.355469 C 507.863281 291.265625 505.980469 287.246094 503.949219 283.292969 C 501.921875 279.339844 499.75 275.46875 497.4375 271.675781 C 495.121094 267.882812 492.675781 264.175781 490.089844 260.5625 C 487.507812 256.949219 484.792969 253.433594 481.953125 250.015625 C 479.113281 246.601562 476.152344 243.292969 473.070312 240.09375 C 469.984375 236.894531 466.789062 233.8125 463.484375 230.847656 C 460.175781 227.878906 456.761719 225.039062 453.246094 222.320312 C 449.730469 219.605469 446.121094 217.019531 442.417969 214.570312 C 438.710938 212.117188 434.921875 209.800781 431.050781 207.625 C 427.175781 205.449219 423.226562 203.417969 419.207031 201.53125 C 415.183594 199.644531 411.097656 197.90625 406.949219 196.320312 C 402.800781 194.730469 398.597656 193.296875 394.34375 192.015625 C 390.089844 190.734375 385.792969 189.609375 381.457031 188.644531 C 377.121094 187.675781 372.753906 186.867188 368.359375 186.21875 C 363.964844 185.570312 359.550781 185.085938 355.121094 184.761719 C 350.691406 184.433594 346.253906 184.273438 341.808594 184.269531 C 338.199219 184.269531 334.589844 184.351562 330.980469 184.515625 C 327.371094 184.679688 323.769531 184.925781 320.171875 185.253906 C 316.578125 185.582031 312.988281 185.992188 309.410156 186.480469 C 305.832031 186.972656 302.265625 187.542969 298.714844 188.195312 C 295.164062 188.847656 291.625 189.578125 288.109375 190.390625 C 284.589844 191.203125 281.089844 192.097656 277.609375 193.070312 C 274.132812 194.039062 270.675781 195.089844 267.246094 196.21875 C 263.816406 197.347656 260.414062 198.550781 257.035156 199.835938 C 253.660156 201.117188 250.3125 202.476562 247 203.910156 C 243.683594 205.347656 240.40625 206.855469 237.160156 208.4375 C 233.914062 210.023438 230.703125 211.679688 227.535156 213.410156 C 224.363281 215.136719 221.234375 216.9375 218.144531 218.808594 C 215.054688 220.679688 212.007812 222.621094 209.007812 224.628906 C 206.007812 226.640625 203.054688 228.714844 200.148438 230.859375 C 197.238281 233.003906 194.382812 235.210938 191.578125 237.484375 C 188.769531 239.757812 186.015625 242.09375 183.316406 244.492188 C 180.617188 246.890625 177.972656 249.347656 175.382812 251.867188 C 172.792969 254.386719 170.261719 256.960938 167.789062 259.59375 C 165.320312 262.226562 162.90625 264.917969 160.558594 267.660156 C 158.207031 270.402344 155.921875 273.195312 153.699219 276.042969 C 151.476562 278.890625 149.316406 281.785156 147.226562 284.730469 C 145.132812 287.671875 143.109375 290.664062 141.15625 293.699219 C 139.199219 296.734375 137.3125 299.816406 135.496094 302.9375 C 133.679688 306.058594 131.933594 309.21875 130.261719 312.421875 C 128.589844 315.621094 126.992188 318.859375 125.464844 322.132812 C 123.9375 325.40625 122.488281 328.714844 121.113281 332.050781 C 119.738281 335.390625 118.4375 338.761719 117.214844 342.160156 C 115.992188 345.558594 114.847656 348.980469 113.78125 352.433594 C 112.714844 355.882812 111.722656 359.355469 110.816406 362.851562 C 109.90625 366.347656 109.074219 369.859375 108.324219 373.394531 C 107.574219 376.925781 106.90625 380.472656 106.316406 384.039062 C 105.726562 387.601562 105.21875 391.175781 104.792969 394.761719 C 103.695312 385.402344 103.144531 376.007812 103.144531 366.582031 C 103.160156 362.6875 103.273438 358.792969 103.480469 354.902344 C 103.6875 351.015625 103.988281 347.132812 104.386719 343.253906 C 104.78125 339.378906 105.273438 335.515625 105.859375 331.664062 C 106.445312 327.8125 107.125 323.980469 107.898438 320.160156 C 108.671875 316.34375 109.539062 312.546875 110.5 308.769531 C 111.457031 304.996094 112.511719 301.246094 113.652344 297.519531 C 114.796875 293.796875 116.03125 290.101562 117.355469 286.4375 C 118.679688 282.777344 120.09375 279.144531 121.59375 275.550781 C 123.097656 271.957031 124.683594 268.402344 126.359375 264.886719 C 128.035156 261.367188 129.796875 257.894531 131.644531 254.464844 C 133.492188 251.035156 135.417969 247.652344 137.429688 244.316406 C 139.441406 240.980469 141.535156 237.695312 143.707031 234.460938 C 145.878906 231.226562 148.128906 228.046875 150.460938 224.925781 C 152.789062 221.800781 155.191406 218.738281 157.667969 215.730469 C 160.148438 212.726562 162.699219 209.78125 165.320312 206.902344 C 167.941406 204.019531 170.632812 201.207031 173.394531 198.457031 C 176.15625 195.707031 178.980469 193.027344 181.871094 190.417969 C 184.765625 187.808594 187.71875 185.269531 190.734375 182.800781 C 193.75 180.335938 196.824219 177.945312 199.957031 175.628906 C 203.089844 173.316406 206.277344 171.078125 209.519531 168.917969 C 212.761719 166.757812 216.054688 164.679688 219.398438 162.683594 C 222.742188 160.683594 226.136719 158.769531 229.574219 156.9375 C 233.011719 155.105469 236.492188 153.359375 240.015625 151.695312 C 243.539062 150.035156 247.101562 148.460938 250.703125 146.972656 C 254.300781 145.488281 257.9375 144.089844 261.605469 142.78125 C 265.277344 141.46875 268.976562 140.253906 272.703125 139.125 C 276.433594 137.996094 280.1875 136.960938 283.964844 136.015625 C 287.746094 135.070312 291.546875 134.21875 295.367188 133.460938 C 299.1875 132.703125 303.027344 132.039062 306.878906 131.46875 C 310.734375 130.898438 314.597656 130.425781 318.476562 130.042969 C 322.351562 129.664062 326.238281 129.378906 330.128906 129.1875 C 334.019531 128.996094 337.914062 128.902344 341.808594 128.902344 C 345.703125 128.902344 349.597656 128.996094 353.488281 129.1875 C 357.378906 129.378906 361.261719 129.664062 365.140625 130.042969 C 369.015625 130.425781 372.882812 130.898438 376.734375 131.46875 C 380.589844 132.039062 384.425781 132.703125 388.25 133.460938 C 392.070312 134.21875 395.871094 135.070312 399.648438 136.015625 C 403.429688 136.960938 407.183594 137.996094 410.914062 139.125 C 414.640625 140.253906 418.339844 141.46875 422.007812 142.78125 C 425.679688 144.089844 429.3125 145.488281 432.914062 146.972656 C 436.515625 148.460938 440.078125 150.035156 443.601562 151.695312 C 447.125 153.359375 450.605469 155.105469 454.042969 156.9375 C 457.480469 158.769531 460.871094 160.683594 464.214844 162.683594 C 467.558594 164.679688 470.855469 166.757812 474.097656 168.917969 C 477.339844 171.078125 480.527344 173.316406 483.660156 175.628906 C 486.792969 177.945312 489.867188 180.335938 492.882812 182.800781 C 495.898438 185.269531 498.851562 187.808594 501.742188 190.417969 C 504.636719 193.027344 507.460938 195.707031 510.222656 198.457031 C 512.980469 201.207031 515.671875 204.019531 518.296875 206.902344 C 520.917969 209.78125 523.46875 212.726562 525.945312 215.730469 C 528.425781 218.738281 530.828125 221.800781 533.15625 224.925781 C 535.484375 228.046875 537.734375 231.226562 539.90625 234.460938 C 542.082031 237.695312 544.171875 240.976562 546.183594 244.316406 C 548.195312 247.652344 550.125 251.035156 551.972656 254.464844 C 553.816406 257.894531 555.578125 261.367188 557.253906 264.886719 C 558.929688 268.402344 560.519531 271.957031 562.023438 275.550781 C 563.523438 279.144531 564.9375 282.777344 566.261719 286.4375 C 567.585938 290.101562 568.820312 293.796875 569.960938 297.519531 C 571.105469 301.246094 572.15625 304.996094 573.117188 308.769531 C 574.078125 312.546875 574.941406 316.34375 575.71875 320.160156 C 576.492188 323.980469 577.171875 327.8125 577.757812 331.664062 C 578.34375 335.515625 578.832031 339.378906 579.230469 343.253906 C 579.628906 347.132812 579.929688 351.015625 580.136719 354.902344 C 580.34375 358.792969 580.453125 362.6875 580.46875 366.582031 Z M 580.46875 366.582031 "/></g></g></svg>